<svg width="681" height="668" viewBox="0 0 681 668" fill="none" xmlns="http://www.w3.org/2000/svg">
<g filter="url(#filter0_f_2002_2)">
<path d="M379.027 219.673C379.027 274.389 391.231 416.951 321.824 416.951C252.416 416.951 205.684 401.581 205.684 346.865C205.684 292.15 177.445 241.737 246.853 241.737C316.26 241.737 379.027 164.958 379.027 219.673Z" fill="url(#paint0_linear_2002_2)"/>
<path d="M398.528 358.979C398.528 413.694 391.231 468 321.824 468C252.416 468 205.684 463.446 205.684 408.73C246.853 374.986 188.279 311.823 257.687 311.823C327.094 311.823 398.528 304.263 398.528 358.979Z" fill="url(#paint1_linear_2002_2)"/>
<path d="M480.866 287.359C424.096 358.979 476.169 443.738 406.762 443.738C337.354 443.738 327.773 438.981 327.773 384.266C368.942 350.521 303.552 241.737 372.96 241.737C442.367 241.737 480.866 232.643 480.866 287.359Z" fill="url(#paint2_linear_2002_2)"/>
</g>
<path d="M341.368 451.446C405.476 451.446 457.445 399.476 457.445 335.368C457.445 271.261 405.476 219.291 341.368 219.291C277.261 219.291 225.291 271.261 225.291 335.368C225.291 399.476 277.261 451.446 341.368 451.446Z" fill="#FF4500"/>
<path d="M418.782 335.368C418.436 326.02 410.586 318.72 401.21 319.038C397.054 319.182 393.103 320.885 390.103 323.74C376.888 314.738 361.365 309.803 345.408 309.457L352.937 273.246L377.78 278.47C378.472 284.846 384.185 289.464 390.562 288.77C396.938 288.079 401.556 282.365 400.862 275.988C400.168 269.612 394.457 264.995 388.08 265.689C384.415 266.063 381.126 268.198 379.31 271.374L350.861 265.689C348.929 265.255 346.994 266.468 346.561 268.431C346.561 268.459 346.561 268.459 346.561 268.487L337.992 308.766C321.834 309.027 306.109 313.99 292.722 323.049C285.912 316.644 275.179 316.961 268.774 323.799C262.369 330.609 262.686 341.342 269.524 347.747C270.853 348.988 272.38 350.056 274.082 350.807C273.966 352.509 273.966 354.212 274.082 355.914C274.082 381.91 304.378 403.059 341.742 403.059C379.106 403.059 409.402 381.939 409.402 355.914C409.519 354.212 409.519 352.509 409.402 350.807C415.232 347.892 418.898 341.889 418.782 335.368ZM302.704 346.997C302.704 340.592 307.928 335.368 314.333 335.368C320.738 335.368 325.961 340.592 325.961 346.997C325.961 353.402 320.738 358.625 314.333 358.625C307.899 358.566 302.704 353.402 302.704 346.997ZM370.135 379.369V378.908C361.883 385.111 351.784 388.284 341.453 387.853C331.123 388.287 321.027 385.111 312.772 378.908C311.676 377.579 311.877 375.59 313.205 374.494C314.359 373.542 316.004 373.542 317.188 374.494C324.171 379.602 332.683 382.199 341.337 381.794C349.994 382.256 358.535 379.774 365.603 374.726C366.872 373.486 368.948 373.514 370.192 374.783C371.432 376.052 371.404 378.129 370.135 379.369ZM368.548 359.461C368.347 359.461 368.174 359.461 367.971 359.461L368.058 359.027C361.654 359.027 356.43 353.804 356.43 347.399C356.43 340.994 361.654 335.771 368.058 335.771C374.463 335.771 379.687 340.994 379.687 347.399C379.945 353.807 374.953 359.2 368.548 359.461Z" fill="white"/>
<defs>
<filter id="filter0_f_2002_2" x="0" y="0" width="680.866" height="668" filterUnits="userSpaceOnUse" color-interpolation-filters="sRGB">
<feFlood flood-opacity="0" result="BackgroundImageFix"/>
<feBlend mode="normal" in="SourceGraphic" in2="BackgroundImageFix" result="shape"/>
<feGaussianBlur stdDeviation="100" result="effect1_foregroundBlur_2002_2"/>
</filter>
<linearGradient id="paint0_linear_2002_2" x1="346.5" y1="200" x2="346.5" y2="468" gradientUnits="userSpaceOnUse">
<stop stop-color="#F7856C"/>
<stop offset="0.45" stop-color="#E2C391"/>
<stop offset="1" stop-color="#F05D11"/>
</linearGradient>
<linearGradient id="paint1_linear_2002_2" x1="346.5" y1="200" x2="346.5" y2="468" gradientUnits="userSpaceOnUse">
<stop stop-color="#F7856C"/>
<stop offset="0.45" stop-color="#E2C391"/>
<stop offset="1" stop-color="#F05D11"/>
</linearGradient>
<linearGradient id="paint2_linear_2002_2" x1="346.5" y1="200" x2="346.5" y2="468" gradientUnits="userSpaceOnUse">
<stop stop-color="#F7856C"/>
<stop offset="0.45" stop-color="#E2C391"/>
<stop offset="1" stop-color="#F05D11"/>
</linearGradient>
</defs>
</svg>
