<?xml version="1.0" encoding="UTF-8" standalone="no"?>
<svg
   id="Layer_1"
   version="1.1"
   viewBox="0 0 450 170"
   sodipodi:docname="lol.svg"
   inkscape:export-filename="logo-with-text.svg"
   inkscape:export-xdpi="96"
   inkscape:export-ydpi="96"
   inkscape:version="1.4 (e7c3feb1, 2024-10-09)"
   width="450"
   height="170"
   xmlns:inkscape="http://www.inkscape.org/namespaces/inkscape"
   xmlns:sodipodi="http://sodipodi.sourceforge.net/DTD/sodipodi-0.dtd"
   xmlns="http://www.w3.org/2000/svg"
   xmlns:svg="http://www.w3.org/2000/svg">
  <sodipodi:namedview
     id="namedview44"
     pagecolor="#ffffff"
     bordercolor="#000000"
     borderopacity="0.25"
     inkscape:showpageshadow="2"
     inkscape:pageopacity="0.0"
     inkscape:pagecheckerboard="0"
     inkscape:deskcolor="#d1d1d1"
     inkscape:export-bgcolor="#ffffff00"
     inkscape:zoom="1.0785548"
     inkscape:cx="273.97774"
     inkscape:cy="265.16966"
     inkscape:window-width="1728"
     inkscape:window-height="965"
     inkscape:window-x="0"
     inkscape:window-y="38"
     inkscape:window-maximized="0"
     inkscape:current-layer="Layer_1" />
  <!-- Generator: Adobe Illustrator 29.3.1, SVG Export Plug-In . SVG Version: 2.1.0 Build 151)  -->
  <defs
     id="defs1">
    <style
       id="style1">
      .st0 {
        fill: #231f20;
      }

      .st1 {
        fill: #fff;
      }
    </style>
  </defs>
  <g
     id="g7"
     transform="translate(-41.627769,-350.42343)"
     inkscape:export-filename="g7.svg"
     inkscape:export-xdpi="96"
     inkscape:export-ydpi="96">
    <path
       class="st0"
       d="m 151.1,449.4 4.7,-6.9 c 2.3,1.6 4.6,2.9 7,4 2.4,1.1 4.9,1.7 7.5,1.7 2.6,0 2.6,-0.2 3.7,-0.5 1.1,-0.3 2,-0.8 2.7,-1.4 0.7,-0.6 1.3,-1.2 1.7,-1.9 0.4,-0.7 0.6,-1.4 0.6,-2.1 0,-0.7 -0.3,-1.7 -0.8,-2.3 -0.5,-0.6 -1.3,-1.2 -2.2,-1.6 -0.9,-0.4 -2,-0.8 -3.3,-1 -1.3,-0.3 -2.6,-0.6 -3.9,-0.8 -0.9,-0.2 -2,-0.4 -3.1,-0.6 -1.1,-0.2 -2.4,-0.5 -3.7,-0.9 -1.3,-0.4 -2.5,-0.9 -3.8,-1.5 -1.2,-0.6 -2.3,-1.4 -3.3,-2.4 -1,-1 -1.8,-2.1 -2.4,-3.4 -0.6,-1.3 -0.9,-2.9 -0.9,-4.7 0,-2.6 0.5,-4.8 1.6,-6.6 1.1,-1.8 2.4,-3.1 4.1,-4.1 1.7,-1 3.5,-1.7 5.5,-2.1 2,-0.4 4,-0.6 5.9,-0.6 1.9,0 3.6,0.1 5.1,0.4 1.5,0.3 2.9,0.6 4.1,1.1 1.3,0.5 2.5,1.1 3.7,1.8 1.2,0.7 2.5,1.6 3.9,2.6 l -4.8,6.8 c -2.1,-1.5 -4.2,-2.6 -6.2,-3.4 -2,-0.8 -4,-1.2 -6.2,-1.2 -2.2,0 -1.6,0 -2.5,0.3 -0.9,0.2 -1.8,0.5 -2.7,0.9 -0.8,0.4 -1.5,0.9 -2.1,1.6 -0.6,0.6 -0.8,1.4 -0.8,2.3 0,0.9 0.3,1.7 1,2.3 0.7,0.6 1.5,1.1 2.5,1.5 1,0.4 2.2,0.8 3.4,1 1.2,0.3 2.4,0.6 3.6,0.9 0.9,0.2 1.9,0.4 3,0.6 1.2,0.2 2.4,0.5 3.6,0.9 1.2,0.4 2.5,0.9 3.7,1.5 1.2,0.6 2.3,1.4 3.3,2.4 1,1 1.7,2.2 2.3,3.6 0.6,1.4 0.9,3.1 0.9,5.1 0,2 -0.4,4.4 -1.2,6.1 -0.8,1.7 -2,3.2 -3.5,4.3 -1.5,1.1 -3.3,2 -5.4,2.6 -2.1,0.6 -4.4,0.9 -7,0.9 -2.6,0 -4.4,-0.2 -6.2,-0.5 -1.8,-0.3 -3.4,-0.8 -4.9,-1.4 -1.5,-0.6 -2.9,-1.3 -4.2,-2.1 -1.3,-0.8 -2.7,-1.7 -4.1,-2.7 z"
       id="path1" />
    <path
       class="st0"
       d="m 236,444.3 c -1,1.8 -2.2,3.4 -3.6,4.9 -1.4,1.5 -3,2.7 -4.8,3.8 -1.7,1 -3.6,1.9 -5.7,2.4 -2,0.6 -4.1,0.9 -6.3,0.9 -3.2,0 -6.2,-0.6 -9.1,-1.8 -2.8,-1.2 -5.3,-2.9 -7.4,-5 -2.1,-2.1 -3.8,-4.6 -5,-7.4 -1.2,-2.8 -1.8,-5.9 -1.8,-9.1 0,-3.2 0.6,-6.2 1.8,-9.1 1.2,-2.8 2.9,-5.3 5,-7.4 2.1,-2.1 4.6,-3.8 7.4,-5 2.8,-1.2 5.9,-1.8 9.1,-1.8 3.2,0 4.3,0.3 6.3,0.9 2,0.6 3.9,1.4 5.7,2.4 1.8,1 3.3,2.3 4.8,3.8 1.4,1.5 2.6,3.1 3.6,4.8 l -8.1,3.3 c -0.7,-1 -1.4,-1.9 -2.3,-2.8 -0.9,-0.9 -1.9,-1.6 -2.9,-2.3 -1,-0.7 -2.2,-1.2 -3.4,-1.5 -1.2,-0.4 -2.4,-0.6 -3.7,-0.6 -2.1,0 -4,0.4 -5.8,1.3 -1.8,0.8 -3.3,2 -4.7,3.4 -1.3,1.4 -2.4,3 -3.1,4.9 -0.8,1.9 -1.2,3.8 -1.2,5.8 0,2 0.4,4 1.2,5.9 0.8,1.8 1.8,3.5 3.1,4.9 1.3,1.4 2.9,2.5 4.7,3.4 1.8,0.8 3.7,1.3 5.8,1.3 2.1,0 2.5,-0.2 3.7,-0.6 1.2,-0.4 2.3,-0.9 3.4,-1.5 1.1,-0.7 2,-1.4 2.9,-2.3 0.9,-0.9 1.7,-1.8 2.3,-2.8 l 8.1,3.3 z"
       id="path2" />
    <path
       class="st0"
       d="m 251.3,417.9 v 11.3 h 21.8 v 7.8 h -21.8 v 10.6 h 24.6 v 7.8 h -33.2 v -45.1 h 33.2 v 7.6 z"
       id="path3" />
    <path
       class="st0"
       d="m 323,455.4 -29.6,-26.8 v 26.8 h -8.6 v -45 h 0.9 l 29.6,27.2 v -27.2 h 8.6 v 45 z"
       id="path4" />
    <path
       class="st0"
       d="m 364.3,417.9 h -12.9 v 37.5 h -8.6 v -37.5 h -12.9 v -7.6 h 34.4 z"
       id="path5" />
    <path
       class="st0"
       d="m 378.8,455.4 h -8.6 v -45.1 h 20.5 c 2.3,0 4.4,0.4 6.3,1.1 1.9,0.8 3.5,1.8 4.9,3.2 1.4,1.4 2.4,3 3.2,4.9 0.8,1.9 1.1,4 1.1,6.2 0,3.4 -0.9,6.4 -2.6,8.9 -1.7,2.5 -4,4.4 -6.8,5.5 3.8,5 7.5,10.1 11.2,15.2 h -10.3 c -1.8,-2.3 -3.6,-4.7 -5.3,-7.1 -1.7,-2.4 -3.4,-4.8 -5.2,-7.3 h -8.5 v 14.4 z m 0,-22 h 11.8 c 0.8,0 1.6,-0.1 2.4,-0.5 0.8,-0.3 1.6,-0.8 2.2,-1.4 0.6,-0.6 1.2,-1.4 1.6,-2.4 0.4,-0.9 0.6,-2.1 0.6,-3.3 0,-1.2 0,-1.4 -0.2,-2.3 -0.2,-0.9 -0.5,-1.8 -1,-2.6 -0.5,-0.8 -1.2,-1.5 -2.1,-2.1 -0.9,-0.6 -2.1,-0.9 -3.6,-0.9 h -11.8 v 15.5 z"
       id="path6" />
    <path
       class="st0"
       d="m 409.3,455.4 23,-45 h 0.9 l 23,45 h -9.4 l -3.5,-7.1 H 422 l -3.4,7.1 h -9.4 z m 17,-14.6 h 12.9 l -6.4,-13.6 z"
       id="path7" />
  </g>
  <g
     id="g10"
     transform="matrix(0.78330409,0,0,0.78330409,-293.97983,-405.2518)">
    <path
       class="st0"
       d="m 467.3,555.7 c 5.8,1.5 10.9,6.2 14.4,10.8 4.3,5.5 7,12.2 8.1,19.1 2.5,14.5 -1.6,29.3 -8.7,41.9 -3.2,5.6 -7,10.7 -11.1,15.6 0,-0.1 0.1,-0.1 0,0 -6,7.1 -12.5,13.8 -18.8,20.6 -3.3,3.6 -6.7,7.2 -9.9,11 -3.1,3.7 -6.4,7.6 -8.3,12 -2,4.7 -1.5,9.6 -2,14.6 -3.9,-2.7 -7.5,-5.8 -9.8,-10.1 -2.9,-5.4 -3.6,-11.6 -3.2,-17.6 0.7,-12.2 6,-24.1 12.1,-34.4 9.8,-16.5 24.4,-29.5 33,-46.7 5.6,-11.4 7.3,-24.3 4.1,-36.7 z"
       id="path8" />
    <path
       class="st0"
       d="m 471.3,664.4 c -6.5,9.4 -16.1,16 -22.8,25.3 -3.7,5.1 -6.9,11 -8,17.3 -0.6,3.2 -0.6,6.5 0.4,9.6 1,2.9 2.9,5.1 5.2,7.1 0.7,-3.2 0.7,-6.2 2.6,-9 1.9,-2.8 4.4,-5.1 6.9,-7.2 5.5,-4.9 11.6,-9.7 16.8,-14.5 2.7,-2.5 5.3,-5.2 7.5,-8.2 4.9,-6.6 8.2,-14.7 7.9,-23.1 -0.1,-4.2 -1.2,-8.4 -3.4,-12.1 -1.7,-2.9 -4.3,-5.9 -7.5,-7.1 1.1,7.9 -1.2,15.5 -5.7,22 z"
       id="path9" />
    <path
       class="st0"
       d="m 441.9,555.9 c -4.6,12 -13.4,21.8 -18.1,33.7 -2.7,6.6 -4.6,13.9 -4.1,21.1 0.2,3.6 1.1,7.3 3,10.4 1.9,2.9 4.6,4.8 7.6,6.4 -0.1,-3.6 -0.9,-7 0.4,-10.6 1.3,-3.5 3.5,-6.7 5.6,-9.8 4.7,-6.8 10.1,-13.7 14.5,-20.4 2.3,-3.5 4.4,-7.1 6,-11 3.6,-8.6 5,-18.3 2.5,-27.4 -1.3,-4.6 -3.6,-8.9 -7,-12.3 -2.6,-2.7 -6.3,-5.3 -10.1,-5.8 3.3,8.3 2.9,17.3 -0.3,25.6 z"
       id="path10" />
  </g>
</svg>
